<svg id="Layer_1" enable-background="new 0 0 53 53" height="512" viewBox="0 0 53 53" width="512" xmlns="http://www.w3.org/2000/svg"><g id="_x32_2"><g><path d="m37.6400146 10.769989c.3900146.4000244.6400146.9500122.6400146 1.5499878v15.0400391c0 1.2099609-.9800415 2.1900024-2.1900024 2.1900024-1.210022 0-2.2000122-.9800415-2.2000122-2.1900024h-7.3900146c-2.289978 0-4.1300049-1.8500366-4.1300049-4.1199951v-1.2400513c-2.5100098-.0099487-9.9199829-.039978-10.039978-.039978-1.5499878-.0100098-2.1600342 1.1699829-2.3099976 1.5499878-.1500244.3600464-.5499878 1.6199951.539978 2.710022l5.1600342 5.1599731c1.9599609 1.9700317 2.5099487 4.7700195 1.4599609 7.3400269-1.0700073 2.5599976-3.4500122 4.1500244-6.2099609 4.1500244h-5.3600463c-.5799561 0-1.1099854-.2400513-1.5-.6200562-.3800049-.3799439-.6099854-.9099732-.6099854-1.5 0-1.1599731.9400024-2.1099854 2.1099854-2.1099854h5.3600464c1.539978.0100098 2.1499634-1.1799927 2.3099976-1.539978.1399536-.3599854.5499878-1.6300049-.5500488-2.7299805l-5.1599731-5.1600342c-1.9500122-1.9500122-2.5100098-4.7700195-1.4500122-7.3200073 1.0599976-2.5599976 3.4400024-4.1599731 6.210022-4.1499634.0999756 0 7.5299683-.0400391 10.039978-.0599976v-1.2300415c0-2.2799683 1.8400269-4.1199951 4.1300049-4.1199951h7.3900146v-.0100098c0-1.2099609.9899902-2.1900024 2.2000122-2.1900024.5999754.0000001 1.1499632.2500001 1.5499876.6400147z"/><path d="m49.5 24.480011c0 .5499878-.2199707 1.0499878-.5800171 1.4099731-.3599854.3599854-.8599854.5800171-1.4099731.5800171h-7.2299805v-3.9799805h7.2299805c1.0999756.0000001 1.9899902.8899537 1.9899902 1.9899903z"/><path d="m47.5100098 17.1899719h-7.2299805v-3.9699707h7.2299805c1.0999756 0 1.9899902.8900146 1.9899902 1.9799805 0 .5499878-.2199707 1.0499878-.5800171 1.4100342-.3599853.3599853-.8599853.579956-1.4099731.579956z"/></g></g></svg>